# xmcd
#
# Track frame offsets: 
#        150
#        19604
#        33030
#        52715
#        70969
#        93742
#        113630
#        135395
#        158146
#        175681
#        197998
#        212016
#        222840
#        235702
#
# Disc length: 3442 seconds
#
# Revision: 0
# Processed by: cddbd v1.5.2PL0 Copyright (c) Steve Scherf et al.
# Submitted via: ExactAudioCopy v0.99pb3
#
DISCID=b20d700e
DTITLE=Korner Alexis - Blues
DYEAR=1900
DGENRE=
TTITLE0=I Got My Mojo Working
TTITLE1=One Scotch, One Bourbon, One Beer
TTITLE2=HiHeel Sneakers
TTITLE3=Sweet Home Chicago
TTITLE4=Hit The Road Jack/Working In A Coalmine
TTITLE5=Geneva
TTITLE6=Key To The Highway
TTITLE7=32-20 Blues
TTITLE8=Flockin' With You
TTITLE9=Stump Blues
TTITLE10=Cherry Red
TTITLE11=Blue Monday
TTITLE12=Honour The Young Man
TTITLE13=The Gambler
EXTD=
EXTT0=
EXTT1=
EXTT2=
EXTT3=
EXTT4=
EXTT5=
EXTT6=
EXTT7=
EXTT8=
EXTT9=
EXTT10=
EXTT11=
EXTT12=
EXTT13=
PLAYORDER=
